{
	"asset":{
		"generator":"Khronos glTF Blender I/O v3.6.27",
		"version":"2.0"
	},
	"extensionsUsed":[
		"KHR_materials_specular",
		"KHR_materials_ior"
	],
	"scene":0,
	"scenes":[
		{
			"name":"Scene",
			"nodes":[
				0,
				1,
				2,
				3,
				4,
				5,
				6,
				7,
				8
			]
		}
	],
	"nodes":[
		{
			"mesh":0,
			"name":"Plane.009",
			"rotation":[
				-0.06087525188922882,
				0,
				0,
				0.9981454014778137
			],
			"scale":[
				512.8359985351562,
				512.8360595703125,
				512.8360595703125
			],
			"translation":[
				-3.4219565391540527,
				-7.965350151062012,
				5.915632247924805
			]
		},
		{
			"mesh":1,
			"name":"Cube.011",
			"rotation":[
				0.15469379723072052,
				0.08064886927604675,
				0.01304625254124403,
				0.9845787882804871
			],
			"scale":[
				1.286525845527649,
				0.03959054499864578,
				1.286525845527649
			],
			"translation":[
				-0.0241509098559618,
				-0.6909464597702026,
				0.06202268227934837
			]
		},
		{
			"mesh":2,
			"name":"Cube.009",
			"rotation":[
				0.1493990123271942,
				-0.04476441815495491,
				0.000970836088526994,
				0.9877626895904541
			],
			"scale":[
				0.7926934361457825,
				0.792693555355072,
				0.7926934957504272
			],
			"translation":[
				-0.07006894052028656,
				-0.22788536548614502,
				0.2781434655189514
			]
		},
		{
			"mesh":3,
			"name":"Cube",
			"rotation":[
				0.1493990123271942,
				-0.04476441442966461,
				0.0009708363213576376,
				0.9877626895904541
			],
			"scale":[
				0.7930055260658264,
				0.7930054664611816,
				0.7930054068565369
			],
			"translation":[
				-0.07034164667129517,
				-0.21085034310817719,
				0.28340470790863037
			]
		},
		{
			"mesh":4,
			"name":"Plane.001",
			"rotation":[
				0.1493990123271942,
				-0.04476441815495491,
				0.0009708357974886894,
				0.9877626895904541
			],
			"scale":[
				0.11210396885871887,
				0.11357919871807098,
				0.11210397630929947
			],
			"translation":[
				-0.0720725804567337,
				0.08397117257118225,
				0.6154149174690247
			]
		},
		{
			"mesh":5,
			"name":"Cube.001",
			"rotation":[
				0.3349924087524414,
				0.16893063485622406,
				0.6659426689147949,
				0.6447967886924744
			],
			"scale":[
				0.36815106868743896,
				0.3681509494781494,
				0.3681510388851166
			],
			"translation":[
				0.5989595055580139,
				0.6207598447799683,
				0.17670938372612
			]
		},
		{
			"mesh":6,
			"name":"Cube.002",
			"rotation":[
				0.3349924087524414,
				0.16893061995506287,
				0.6659426689147949,
				0.6447967886924744
			],
			"scale":[
				0.4690874218940735,
				0.46908730268478394,
				0.4690873920917511
			],
			"translation":[
				0.6117100119590759,
				0.659538745880127,
				0.17670938372612
			]
		},
		{
			"mesh":7,
			"name":"Cube.013",
			"rotation":[
				0.2018868625164032,
				0.8766844272613525,
				0.23564355075359344,
				0.3676115870475769
			],
			"scale":[
				0.2797771394252777,
				0.14192192256450653,
				0.35570451617240906
			],
			"translation":[
				0.5344739556312561,
				-0.7130430340766907,
				0.8059004545211792
			]
		},
		{
			"mesh":8,
			"name":"Cube.012",
			"rotation":[
				0.20335622131824493,
				0.6657848358154297,
				0.3036932945251465,
				0.6504976153373718
			],
			"scale":[
				0.2797771394252777,
				0.14192192256450653,
				0.35570454597473145
			],
			"translation":[
				0.08288107812404633,
				-0.8133372664451599,
				0.939468502998352
			]
		}
	],
	"materials":[
		{
			"doubleSided":true,
			"extensions":{
				"KHR_materials_specular":{
					"specularColorFactor":[
						0,
						0,
						0
					]
				},
				"KHR_materials_ior":{
					"ior":1.4500000476837158
				}
			},
			"name":"Absolute Black",
			"pbrMetallicRoughness":{
				"baseColorFactor":[
					0,
					0,
					0,
					1
				],
				"roughnessFactor":0
			}
		},
		{
			"doubleSided":true,
			"name":"Material.003",
			"pbrMetallicRoughness":{
				"baseColorFactor":[
					0.03740223869681358,
					0.008108674548566341,
					0,
					1
				],
				"metallicFactor":0,
				"roughnessFactor":0.5
			}
		},
		{
			"doubleSided":true,
			"extensions":{
				"KHR_materials_specular":{
					"specularColorFactor":[
						0.21114825266276888,
						0.21114825266276888,
						0.21114825266276888
					]
				},
				"KHR_materials_ior":{
					"ior":1.4500000476837158
				}
			},
			"name":"Material.004",
			"pbrMetallicRoughness":{
				"baseColorFactor":[
					0.6859500408172607,
					0.42581239342689514,
					0.08292181044816971,
					1
				],
				"metallicFactor":0,
				"roughnessFactor":0.1965174376964569
			}
		},
		{
			"doubleSided":true,
			"extensions":{
				"KHR_materials_specular":{
					"specularColorFactor":[
						1.4806237264785738,
						1.4806237264785738,
						1.4806237264785738
					]
				},
				"KHR_materials_ior":{
					"ior":1.4500000476837158
				}
			},
			"name":"Material.006",
			"pbrMetallicRoughness":{
				"baseColorFactor":[
					1,
					0.7273264527320862,
					0.4381459057331085,
					1
				],
				"metallicFactor":0,
				"roughnessFactor":0.24626865983009338
			}
		},
		{
			"doubleSided":true,
			"extensions":{
				"KHR_materials_specular":{
					"specularColorFactor":[
						0.7019690717926987,
						0.7019690717926987,
						0.7019690717926987
					]
				},
				"KHR_materials_ior":{
					"ior":1.4500000476837158
				}
			},
			"name":"Material.005",
			"pbrMetallicRoughness":{
				"baseColorFactor":[
					0.037420693784952164,
					0.014139111153781414,
					0,
					1
				],
				"metallicFactor":0,
				"roughnessFactor":0.5
			}
		}
	],
	"meshes":[
		{
			"name":"Plane.009",
			"primitives":[
				{
					"attributes":{
						"POSITION":0,
						"NORMAL":1,
						"TEXCOORD_0":2
					},
					"indices":3,
					"material":0
				}
			]
		},
		{
			"name":"Cube.010",
			"primitives":[
				{
					"attributes":{
						"POSITION":4,
						"NORMAL":5,
						"TEXCOORD_0":6
					},
					"indices":7,
					"material":1
				}
			]
		},
		{
			"name":"Cube.009",
			"primitives":[
				{
					"attributes":{
						"POSITION":8,
						"NORMAL":9,
						"TEXCOORD_0":10
					},
					"indices":11,
					"material":2
				}
			]
		},
		{
			"name":"Cube.014",
			"primitives":[
				{
					"attributes":{
						"POSITION":12,
						"NORMAL":13,
						"TEXCOORD_0":14
					},
					"indices":15,
					"material":1
				}
			]
		},
		{
			"name":"Plane.001",
			"primitives":[
				{
					"attributes":{
						"POSITION":16,
						"NORMAL":17,
						"TEXCOORD_0":18
					},
					"indices":19,
					"material":3
				}
			]
		},
		{
			"name":"Cube.015",
			"primitives":[
				{
					"attributes":{
						"POSITION":20,
						"NORMAL":21,
						"TEXCOORD_0":22
					},
					"indices":23,
					"material":1
				}
			]
		},
		{
			"name":"Cube.017",
			"primitives":[
				{
					"attributes":{
						"POSITION":24,
						"NORMAL":25,
						"TEXCOORD_0":26
					},
					"indices":27,
					"material":3
				}
			]
		},
		{
			"name":"Cube.012",
			"primitives":[
				{
					"attributes":{
						"POSITION":28,
						"NORMAL":29,
						"TEXCOORD_0":30
					},
					"indices":31,
					"material":4
				}
			]
		},
		{
			"name":"Cube.013",
			"primitives":[
				{
					"attributes":{
						"POSITION":32,
						"NORMAL":33,
						"TEXCOORD_0":34
					},
					"indices":31,
					"material":4
				}
			]
		}
	],
	"accessors":[
		{
			"bufferView":0,
			"componentType":5126,
			"count":4,
			"max":[
				1,
				0,
				1
			],
			"min":[
				-1,
				0,
				-1
			],
			"type":"VEC3"
		},
		{
			"bufferView":1,
			"componentType":5126,
			"count":4,
			"type":"VEC3"
		},
		{
			"bufferView":2,
			"componentType":5126,
			"count":4,
			"type":"VEC2"
		},
		{
			"bufferView":3,
			"componentType":5123,
			"count":6,
			"type":"SCALAR"
		},
		{
			"bufferView":4,
			"componentType":5126,
			"count":54,
			"max":[
				1.000000238418579,
				3.6283140182495117,
				1.0000001192092896
			],
			"min":[
				-1.005486011505127,
				-7.132223606109619,
				-1.0033276081085205
			],
			"type":"VEC3"
		},
		{
			"bufferView":5,
			"componentType":5126,
			"count":54,
			"type":"VEC3"
		},
		{
			"bufferView":6,
			"componentType":5126,
			"count":54,
			"type":"VEC2"
		},
		{
			"bufferView":7,
			"componentType":5123,
			"count":228,
			"type":"SCALAR"
		},
		{
			"bufferView":8,
			"componentType":5126,
			"count":96,
			"max":[
				0.8443189859390259,
				0.693622350692749,
				0.8416292071342468
			],
			"min":[
				-0.8384621143341064,
				0.4608073830604553,
				-0.8435869216918945
			],
			"type":"VEC3"
		},
		{
			"bufferView":9,
			"componentType":5126,
			"count":96,
			"type":"VEC3"
		},
		{
			"bufferView":10,
			"componentType":5126,
			"count":96,
			"type":"VEC2"
		},
		{
			"bufferView":11,
			"componentType":5123,
			"count":564,
			"type":"SCALAR"
		},
		{
			"bufferView":12,
			"componentType":5126,
			"count":496,
			"max":[
				1.5517268180847168,
				0.7434894442558289,
				0.9921606183052063
			],
			"min":[
				-0.9921606183052063,
				-0.9648045301437378,
				-0.9921606779098511
			],
			"type":"VEC3"
		},
		{
			"bufferView":13,
			"componentType":5126,
			"count":496,
			"type":"VEC3"
		},
		{
			"bufferView":14,
			"componentType":5126,
			"count":496,
			"type":"VEC2"
		},
		{
			"bufferView":15,
			"componentType":5123,
			"count":2358,
			"type":"SCALAR"
		},
		{
			"bufferView":16,
			"componentType":5126,
			"count":116,
			"max":[
				3.838167905807495,
				1.4330532550811768,
				0.8086349964141846
			],
			"min":[
				-3.8504600524902344,
				0.7602390646934509,
				-5.158932209014893
			],
			"type":"VEC3"
		},
		{
			"bufferView":17,
			"componentType":5126,
			"count":116,
			"type":"VEC3"
		},
		{
			"bufferView":18,
			"componentType":5126,
			"count":116,
			"type":"VEC2"
		},
		{
			"bufferView":19,
			"componentType":5123,
			"count":684,
			"type":"SCALAR"
		},
		{
			"bufferView":20,
			"componentType":5126,
			"count":287,
			"max":[
				1.4102952480316162,
				0.6150270700454712,
				0.44388437271118164
			],
			"min":[
				-0.36908984184265137,
				-0.6495847702026367,
				-0.8723016977310181
			],
			"type":"VEC3"
		},
		{
			"bufferView":21,
			"componentType":5126,
			"count":287,
			"type":"VEC3"
		},
		{
			"bufferView":22,
			"componentType":5126,
			"count":287,
			"type":"VEC2"
		},
		{
			"bufferView":23,
			"componentType":5123,
			"count":1482,
			"type":"SCALAR"
		},
		{
			"bufferView":24,
			"componentType":5126,
			"count":70,
			"max":[
				0.5883042812347412,
				1.0502679347991943,
				0.3553754687309265
			],
			"min":[
				-0.6684734225273132,
				-0.2934301197528839,
				-0.6443802118301392
			],
			"type":"VEC3"
		},
		{
			"bufferView":25,
			"componentType":5126,
			"count":70,
			"type":"VEC3"
		},
		{
			"bufferView":26,
			"componentType":5126,
			"count":70,
			"type":"VEC2"
		},
		{
			"bufferView":27,
			"componentType":5123,
			"count":408,
			"type":"SCALAR"
		},
		{
			"bufferView":28,
			"componentType":5126,
			"count":157,
			"max":[
				0.7629023194313049,
				0.7851451635360718,
				0.8021373152732849
			],
			"min":[
				-0.7654154300689697,
				-1.297708511352539,
				-0.7587869763374329
			],
			"type":"VEC3"
		},
		{
			"bufferView":29,
			"componentType":5126,
			"count":157,
			"type":"VEC3"
		},
		{
			"bufferView":30,
			"componentType":5126,
			"count":157,
			"type":"VEC2"
		},
		{
			"bufferView":31,
			"componentType":5123,
			"count":630,
			"type":"SCALAR"
		},
		{
			"bufferView":32,
			"componentType":5126,
			"count":157,
			"max":[
				0.7629023194313049,
				0.7851451635360718,
				0.8021373152732849
			],
			"min":[
				-0.7654154300689697,
				-1.297708511352539,
				-0.7587869763374329
			],
			"type":"VEC3"
		},
		{
			"bufferView":33,
			"componentType":5126,
			"count":157,
			"type":"VEC3"
		},
		{
			"bufferView":34,
			"componentType":5126,
			"count":157,
			"type":"VEC2"
		}
	],
	"bufferViews":[
		{
			"buffer":0,
			"byteLength":48,
			"byteOffset":0,
			"target":34962
		},
		{
			"buffer":0,
			"byteLength":48,
			"byteOffset":48,
			"target":34962
		},
		{
			"buffer":0,
			"byteLength":32,
			"byteOffset":96,
			"target":34962
		},
		{
			"buffer":0,
			"byteLength":12,
			"byteOffset":128,
			"target":34963
		},
		{
			"buffer":0,
			"byteLength":648,
			"byteOffset":140,
			"target":34962
		},
		{
			"buffer":0,
			"byteLength":648,
			"byteOffset":788,
			"target":34962
		},
		{
			"buffer":0,
			"byteLength":432,
			"byteOffset":1436,
			"target":34962
		},
		{
			"buffer":0,
			"byteLength":456,
			"byteOffset":1868,
			"target":34963
		},
		{
			"buffer":0,
			"byteLength":1152,
			"byteOffset":2324,
			"target":34962
		},
		{
			"buffer":0,
			"byteLength":1152,
			"byteOffset":3476,
			"target":34962
		},
		{
			"buffer":0,
			"byteLength":768,
			"byteOffset":4628,
			"target":34962
		},
		{
			"buffer":0,
			"byteLength":1128,
			"byteOffset":5396,
			"target":34963
		},
		{
			"buffer":0,
			"byteLength":5952,
			"byteOffset":6524,
			"target":34962
		},
		{
			"buffer":0,
			"byteLength":5952,
			"byteOffset":12476,
			"target":34962
		},
		{
			"buffer":0,
			"byteLength":3968,
			"byteOffset":18428,
			"target":34962
		},
		{
			"buffer":0,
			"byteLength":4716,
			"byteOffset":22396,
			"target":34963
		},
		{
			"buffer":0,
			"byteLength":1392,
			"byteOffset":27112,
			"target":34962
		},
		{
			"buffer":0,
			"byteLength":1392,
			"byteOffset":28504,
			"target":34962
		},
		{
			"buffer":0,
			"byteLength":928,
			"byteOffset":29896,
			"target":34962
		},
		{
			"buffer":0,
			"byteLength":1368,
			"byteOffset":30824,
			"target":34963
		},
		{
			"buffer":0,
			"byteLength":3444,
			"byteOffset":32192,
			"target":34962
		},
		{
			"buffer":0,
			"byteLength":3444,
			"byteOffset":35636,
			"target":34962
		},
		{
			"buffer":0,
			"byteLength":2296,
			"byteOffset":39080,
			"target":34962
		},
		{
			"buffer":0,
			"byteLength":2964,
			"byteOffset":41376,
			"target":34963
		},
		{
			"buffer":0,
			"byteLength":840,
			"byteOffset":44340,
			"target":34962
		},
		{
			"buffer":0,
			"byteLength":840,
			"byteOffset":45180,
			"target":34962
		},
		{
			"buffer":0,
			"byteLength":560,
			"byteOffset":46020,
			"target":34962
		},
		{
			"buffer":0,
			"byteLength":816,
			"byteOffset":46580,
			"target":34963
		},
		{
			"buffer":0,
			"byteLength":1884,
			"byteOffset":47396,
			"target":34962
		},
		{
			"buffer":0,
			"byteLength":1884,
			"byteOffset":49280,
			"target":34962
		},
		{
			"buffer":0,
			"byteLength":1256,
			"byteOffset":51164,
			"target":34962
		},
		{
			"buffer":0,
			"byteLength":1260,
			"byteOffset":52420,
			"target":34963
		},
		{
			"buffer":0,
			"byteLength":1884,
			"byteOffset":53680,
			"target":34962
		},
		{
			"buffer":0,
			"byteLength":1884,
			"byteOffset":55564,
			"target":34962
		},
		{
			"buffer":0,
			"byteLength":1256,
			"byteOffset":57448,
			"target":34962
		}
	],
	"buffers":[
		{
			"byteLength":58704,
			"uri":"data:application/octet-stream;base64,"
		}
	]
}
